# xmcd
#
# Track frame offsets:
#	150
#	12228
#	27092
#	40446
#	64899
#	85533
#	104351
#	126294
#	138971
#	152496
#	176008
#
# Disc length: 2608 seconds
#
# Revision: 0
# Processed by: cddbd v1.5.2PL0 Copyright (c) Steve Scherf et al.
# Submitted via: dBpowerAMP V4.0
#
DISCID=870a2e0b
DTITLE=Scott Bradbury - Callin' All Blues
DYEAR=2004
DGENRE=Blues
TTITLE0=Callin All Blues
TTITLE1=Clayborn Avenue
TTITLE2=Don't Turn Your Back On The Blues
TTITLE3=Life Story
TTITLE4=This Life Don't Last Forever
TTITLE5=Be Careful What You Wish For
TTITLE6=Things I Should
TTITLE7=Light Fuse Get Away
TTITLE8=Looking For My Baby
TTITLE9=Third Eye
TTITLE10=Country Girl
EXTD=Harmonica Blues\nTearDrop Records 2004
EXTT0=
EXTT1=
EXTT2=
EXTT3=
EXTT4=
EXTT5=
EXTT6=
EXTT7=
EXTT8=
EXTT9=
EXTT10=
PLAYORDER=
